# xmcd
#
# Track frame offsets: 
#        150
#        10880
#        22101
#        34626
#        47392
#        60329
#        72883
#        85273
#        96670
#        109139
#        121992
#        134447
#        146771
#        160014
#        173299
#        183206
#        193536
#        205092
#        217111
#        228104
#        239843
#        251843
#        264973
#        276381
#        288916
#        299814
#        313181
#        325469
#        335588
#        348712
#        360676
#        372442
#        378565
#
# Disc length: 5155 seconds
#
# Revision: 1
# Processed by: cddbd v1.5.2PL0 Copyright (c) Steve Scherf et al.
# Submitted via: ExactAudioCopy v1.1
#
DISCID=0e142121
DTITLE=Hank Williams - Rockin' Chair Money (Bear Family)
DYEAR=2009
DGENRE=Country
TTITLE0=Tennessee Border
TTITLE1=Swing Wide Your Gate Of Love
TTITLE2=Move It On Over
TTITLE3=Rootie Tootie
TTITLE4=I'm A Long Gone Daddy
TTITLE5=I Saw The Light
TTITLE6=I Ain't Got Nothin' But Time
TTITLE7=You Better Keep It On Your Mind
TTITLE8=Honky Tonkin'
TTITLE9=Pan American
TTITLE10=The Blues Come Around
TTITLE11=Lovesick Blues
TTITLE12=Mind Your Own Business
TTITLE13=You're Gonna Change (Or I'm Gonna Leave)
TTITLE14=Rockin' Chair Money
TTITLE15=Roly Poly
TTITLE16=My Bucket's Got A Hole In It
TTITLE17=Long Gone Lonesome Blues
TTITLE18=Why Don't You Love Me
TTITLE19=I'm Satisfied With You
TTITLE20=I'll Be A Bachelor 'Til I Die
TTITLE21=I Can't Get You Off Of My Mind
TTITLE22=Nobody's Lonesome For Me
TTITLE23=Fly Trouble
TTITLE24=Moanin' The Blues
TTITLE25=Hey, Good Lookin'
TTITLE26=Half As Much
TTITLE27=Honky Tonk Blues
TTITLE28=Jambalaya (On The Bayou)
TTITLE29=Settin' The Woods On Fire
TTITLE30=Kaw-Liga
TTITLE31=Ten Little Numbers
TTITLE32=Fool About You
EXTD=YEAR: 2009
EXTT0=
EXTT1=
EXTT2=
EXTT3=
EXTT4=
EXTT5=
EXTT6=
EXTT7=
EXTT8=
EXTT9=
EXTT10=
EXTT11=
EXTT12=
EXTT13=
EXTT14=
EXTT15=
EXTT16=
EXTT17=
EXTT18=
EXTT19=
EXTT20=
EXTT21=
EXTT22=
EXTT23=
EXTT24=
EXTT25=
EXTT26=
EXTT27=
EXTT28=
EXTT29=
EXTT30=
EXTT31=
EXTT32=
PLAYORDER=
